PathFileType	4	(X/Y/Z)	C:\Users\dbl\Desktop\20210112(1)\20210112\bx_y_0_901.trc
DataRate	CameraRate	NumFrames	NumMarkers	Units	OrigDataRate	OrigDataStartFrame	OrigNumFrames
50.00	50.00	       5	43	mm	50.00	115	       457
Frame#	Time	Top.Head			R.Acromium			L.Acromium			Sternum			R.ASIS			L.ASIS			V.Sacral			R.Thigh.Upper			R.Thigh.Front			R.Thigh.Rear			R.Knee.Lat			R.Knee.Med			R.Shank.Upper			R.Shank.Front			R.Shank.Rear			R.Ankle.Lat			R.Midfoot.Lat			R.Toe.Lat			R.Toe.Tip			R.Toe.Med			R.Ankle.Med			R.Midfoot.Sup			R.Heel			L.Thigh.Upper			L.Thigh.Front			L.Thigh.Rear			L.Knee.Lat			L.Knee.Med			L.Shank.Upper			L.Shank.Front			L.Shank.Rear			L.Ankle.Lat			L.Midfoot.Lat			L.Toe.Lat			L.Toe.Tip			L.Toe.Med			L.Ankle.Med			L.Midfoot.Sup			L.Heel			origin1 front left			origin2 front right			origin 3 back right			origin 4 back leftt			
		X1	Y1	Z1	X2	Y2	Z2	X3	Y3	Z3	X4	Y4	Z4	X5	Y5	Z5	X6	Y6	Z6	X7	Y7	Z7	X8	Y8	Z8	X9	Y9	Z9	X10	Y10	Z10	X11	Y11	Z11	X12	Y12	Z12	X13	Y13	Z13	X14	Y14	Z14	X15	Y15	Z15	X16	Y16	Z16	X17	Y17	Z17	X18	Y18	Z18	X19	Y19	Z19	X20	Y20	Z20	X21	Y21	Z21	X22	Y22	Z22	X23	Y23	Z23	X24	Y24	Z24	X25	Y25	Z25	X26	Y26	Z26	X27	Y27	Z27	X28	Y28	Z28	X29	Y29	Z29	X30	Y30	Z30	X31	Y31	Z31	X32	Y32	Z32	X33	Y33	Z33	X34	Y34	Z34	X35	Y35	Z35	X36	Y36	Z36	X37	Y37	Z37	X38	Y38	Z38	X39	Y39	Z39	X40	Y40	Z40	X41	Y41	Z41	X42	Y42	Z42	X43	Y43	Z43	

115	2.280	-389.31891	118.74174	1763.43799	-533.89716	-71.71891	1502.70898	-572.49103	286.17642	1505.93213	-529.08124	106.02039	1369.91199	-666.13928	-4.06288	1038.05981	-657.98199	214.05621	1057.89966	-861.44836	93.55624	1076.83374	-732.23730	-68.90182	856.97687	-656.97925	-7.69657	802.98608	-762.49280	-49.61297	713.31714	-755.21069	-29.06831	612.22528	-732.49432	79.36512	570.48425	-759.59119	-25.37756	565.40796	-704.72290	18.77744	523.05292	-796.45697	-35.30655	483.04886	-768.74017	-6.09667	205.06461	-664.04077	-67.17964	162.81241	-622.42285	-78.14882	158.70097	-560.57239	-39.92413	163.67593	-603.71259	20.10739	166.23746	-720.14880	76.87202	217.94818	-675.16125	56.43847	158.21111	-795.33801	54.58267	174.06052	-716.73193	281.14063	877.77368	-655.30823	215.07587	815.67993	-755.22101	278.42212	744.67017	-777.58447	250.73204	634.04413	-732.64899	144.52475	570.71356	-772.62701	246.73381	572.26166	-713.36621	207.01711	534.95898	-805.02057	257.13980	496.36368	-773.47528	223.21799	203.42799	-667.86218	299.68146	159.00056	-630.17438	308.00089	162.18896	-562.34033	262.10583	166.47446	-595.68134	223.24734	173.78535	-715.01691	153.58151	218.09178	-675.58142	173.17961	158.18332	-797.06671	173.22180	183.20773	-527.88177	303.97632	146.37904	-517.93689	-72.73457	142.79965	-875.58173	-78.62383	140.46404	-882.59912	295.97458	144.47707	
116	2.300	-381.07071	117.71201	1757.55383	-529.08350	-72.07287	1498.57190	-567.07336	285.87204	1502.69739	-526.30585	104.93226	1365.74329	-668.06299	-4.15139	1037.66797	-660.05023	213.63913	1057.31360	-863.25470	93.61713	1077.13232	-734.27191	-68.96707	856.82971	-658.87860	-7.83311	802.93677	-764.26385	-49.68630	713.19977	-756.47894	-29.20114	612.22791	-733.57788	79.32167	570.56250	-760.67761	-25.45536	565.35480	-705.66742	18.71107	523.13751	-797.30743	-35.32515	482.87210	-768.90900	-6.07621	204.91167	-664.06250	-67.19892	162.77074	-622.42291	-78.17439	158.67192	-560.54724	-39.87548	163.67892	-603.75043	20.06461	166.27280	-720.25256	76.83116	218.10515	-675.08759	56.36658	158.39998	-795.35016	54.58403	174.02975	-718.61182	281.06281	877.75879	-657.20148	215.10100	815.72125	-756.87140	278.46817	744.59332	-778.72803	250.84833	633.95020	-733.64258	144.65965	570.62756	-773.59314	246.74544	572.12433	-714.21954	207.03500	535.02441	-805.77368	257.33276	496.18179	-773.55750	223.24800	203.38969	-667.86676	299.69733	159.02380	-630.17987	307.99228	162.20403	-562.31299	261.98605	166.45448	-595.71765	223.23253	173.73372	-715.16901	153.65175	218.13150	-675.63196	173.29295	158.23076	-797.15515	173.20412	183.21472	-527.87579	303.92871	146.33037	-517.93024	-72.65009	142.79535	-875.75116	-78.68999	140.68979	-882.61194	296.01785	144.49336	
117	2.320	-372.72687	116.69878	1751.23010	-524.20215	-72.46492	1494.03528	-561.63086	285.54001	1499.22681	-523.53638	103.67730	1361.47729	-670.07623	-4.26095	1037.22925	-661.98792	213.45848	1056.76343	-865.15088	93.62766	1077.40393	-736.33429	-69.01207	856.68719	-660.80743	-7.96606	802.92725	-766.07605	-49.74284	713.05017	-757.75726	-29.31450	612.17957	-734.64258	79.27692	570.59558	-761.74487	-25.51753	565.24213	-706.60498	18.63785	523.23450	-798.17987	-35.41165	482.66916	-769.08551	-6.07720	204.75354	-664.10461	-67.21187	162.71545	-622.40350	-78.19296	158.65337	-560.52594	-39.81251	163.68166	-603.78265	20.04094	166.29233	-720.44525	76.74263	218.22581	-675.04663	56.25111	158.58630	-795.37463	54.58627	174.00819	-720.61041	281.00684	877.63818	-659.13788	215.17374	815.64984	-758.60034	278.51160	744.45245	-779.87524	250.95111	633.77051	-734.58490	144.80754	570.52417	-774.59326	246.84227	572.04584	-715.06744	207.09323	535.09375	-806.51746	257.53152	496.01166	-773.66254	223.33395	203.33051	-667.86511	299.70471	159.02975	-630.18878	307.97797	162.21706	-562.28754	261.88235	166.43881	-595.73279	223.20694	173.67120	-715.32593	153.72050	218.17638	-675.71252	173.40298	158.28857	-797.22662	173.21637	183.26120	-527.92133	303.87714	146.24678	-517.92468	-72.58693	142.82712	-875.89398	-78.77930	140.95869	-882.64581	296.07333	144.52151	
118	2.340	-364.32901	115.66794	1744.46667	-519.29730	-72.89310	1489.11902	-556.14203	285.17923	1495.51599	-520.78912	102.38945	1357.20508	-672.17114	-4.33410	1036.76648	-663.90216	213.41975	1056.17676	-867.10223	93.56603	1077.61890	-738.35620	-69.05150	856.60986	-662.71375	-8.06658	802.96826	-767.83502	-49.84158	712.89771	-759.04755	-29.38096	612.06470	-735.67780	79.22131	570.55573	-762.83887	-25.56321	565.10376	-707.53656	18.56278	523.37390	-799.06250	-35.52081	482.45840	-769.23639	-6.11966	204.62183	-664.18408	-67.23380	162.65111	-622.39093	-78.22210	158.63126	-560.52563	-39.74416	163.66791	-603.81268	20.04859	166.31093	-720.69171	76.57341	218.24968	-675.08832	56.10896	158.70438	-795.42023	54.55872	174.00446	-722.74963	280.95773	877.38367	-661.07312	215.22691	815.47791	-760.35974	278.62744	744.28656	-781.07172	251.01144	633.50629	-735.55481	144.92955	570.44641	-775.63141	246.93272	571.97351	-715.93109	207.16295	535.10437	-807.26776	257.66711	495.85635	-773.74860	223.46442	203.25989	-667.85931	299.70490	159.02324	-630.18164	307.97208	162.22551	-562.26874	261.81464	166.42081	-595.70398	223.18132	173.60025	-715.41461	153.78629	218.21268	-675.80878	173.49582	158.37729	-797.26581	173.24289	183.31921	-527.98688	303.82968	146.15796	-517.93555	-72.57721	142.88370	-875.97095	-78.82513	141.16774	-882.68958	296.11905	144.55431	
119	2.360	-355.88724	114.62004	1737.29688	-514.41943	-73.36369	1483.86206	-550.57928	284.75522	1491.53125	-518.06848	101.13363	1352.96753	-674.26971	-4.32190	1036.37378	-665.92151	213.43640	1055.54333	-869.03027	93.43559	1077.77979	-740.25616	-69.12917	856.63055	-664.53870	-8.11666	803.03967	-769.38123	-50.04795	712.79791	-760.35046	-29.42293	611.91589	-736.69348	79.15549	570.48010	-763.96667	-25.62268	565.00519	-708.47375	18.49771	523.54517	-799.94550	-35.61447	482.25461	-769.37811	-6.19245	204.52577	-664.26208	-67.26918	162.57240	-622.39435	-78.25179	158.59328	-560.55225	-39.66565	163.62482	-603.84552	20.07716	166.33774	-720.95001	76.35034	218.21008	-675.20001	55.96808	158.75682	-795.48883	54.49260	174.02026	-725.01483	280.86591	877.03448	-663.01764	215.22923	815.25494	-762.15918	278.81357	744.11017	-782.33826	251.00237	633.19409	-736.61285	144.99586	570.40118	-776.69043	246.96519	571.89001	-716.80981	207.22231	535.05542	-808.05011	257.70862	495.69156	-773.80060	223.57884	203.18892	-667.85083	299.70410	159.00748	-630.16785	307.98593	162.22707	-562.24750	261.76392	166.37727	-595.65405	223.15808	173.53600	-715.41174	153.84850	218.22398	-675.90381	173.54874	158.48643	-797.28705	173.26196	183.35696	-528.03790	303.79803	146.10379	-517.96918	-72.59684	142.90030	-875.97278	-78.78197	141.27867	-882.70782	296.14175	144.58003	
